<svg height="74" width="73" xmlns="http://www.w3.org/2000/svg"><g fill="none" stroke="#fff" stroke-width=".9"><path d="M50.916 73h-.023c-9.944-.017-22.897-9.46-31.702-18.29C10.385 45.88.983 32.902 1 22.962c.009-4.585 2.682-11.909 8.531-17.155 1.46-1.311 3.851-1.251 5.228.13l10.234 10.264a3.769 3.769 0 01.09 5.236c-1.179 1.272-2.441 2.228-3.556 3.071-1.028.779-2.309 1.748-2.31 2.24-.016 9.677 18.27 28.016 27.952 28.033.47 0 1.452-1.365 2.168-2.363.804-1.12 1.715-2.388 2.926-3.578 1.426-1.398 3.898-1.382 5.313.037L67.978 59.31a3.792 3.792 0 01.11 5.224C62.83 70.35 55.5 73 50.916 73zM12.083 7.99a.657.657 0 00-.437.17c-4.901 4.397-7.473 10.777-7.48 14.808-.013 7.394 6.765 18.977 17.267 29.51C31.936 63.009 43.502 69.824 50.9 69.837h.016c4.03 0 10.417-2.55 14.825-7.425a.63.63 0 00-.006-.869L55.334 51.111c-.303-.307-.548-.314-.853-.014-1.017 1-1.844 2.15-2.574 3.167-1.359 1.892-2.643 3.68-4.738 3.68-11.362-.02-31.136-19.85-31.117-31.201.004-2.062 1.733-3.37 3.564-4.756 1.01-.766 2.155-1.632 3.145-2.7a.615.615 0 00-.01-.854L12.516 8.17a.596.596 0 00-.433-.18z" fill="#035093"/><g fill="#015196"><path d="M58.717 34.068a1.582 1.582 0 01-1.583-1.581c0-9.17-7.465-16.63-16.64-16.63a1.582 1.582 0 110-3.163c10.921 0 19.806 8.879 19.806 19.793 0 .873-.709 1.581-1.583 1.581zm-10.693.767a1.582 1.582 0 01-1.582-1.581c0-3.7-3.012-6.71-6.714-6.71a1.582 1.582 0 110-3.164c5.447 0 9.879 4.43 9.879 9.874 0 .873-.709 1.581-1.583 1.581z"/><path d="M70.418 34.835a1.582 1.582 0 01-1.583-1.581c0-16.04-13.058-29.09-29.107-29.09a1.582 1.582 0 110-3.164C57.523 1 72 15.469 72 33.254c0 .873-.708 1.581-1.582 1.581z"/></g></g></svg>