<svg height="78" width="98" xmlns="http://www.w3.org/2000/svg"><g fill="#035093" stroke="#fff" stroke-width="1.912"><path d="M13.494 53.01a2.006 2.006 0 01-2-2.007V43.94c0-.795-.652-1.44-1.455-1.44H6.492C3.462 42.5 1 40.02 1 36.97V6.51C1 3.472 3.463 1 6.492 1h49.965a5.517 5.517 0 015.512 5.51v20.486a2.003 2.003 0 01-2 2.007H41.543c-.822 0-1.492.68-1.492 1.516v9.973a2.003 2.003 0 01-2 2.007h-9.846c-.226 0-.557.048-.836.276L14.717 52.59c-.358.278-.79.42-1.223.42zM6.492 5.015A1.495 1.495 0 005 6.51v30.458c0 .836.67 1.517 1.492 1.517h3.547a5.461 5.461 0 015.455 5.454v2.976l9.39-7.285c.891-.728 2.085-1.145 3.321-1.145h7.846v-7.966c0-3.05 2.463-5.53 5.492-5.53h16.426V6.51c0-.825-.678-1.496-1.512-1.496z"/><path d="M84.506 77a1.99 1.99 0 01-1.225-.42l-12.594-9.786a1.506 1.506 0 00-.892-.306H41.543c-3.03 0-5.492-2.473-5.492-5.512V30.52c0-3.05 2.463-5.53 5.492-5.53h49.965c3.03 0 5.492 2.48 5.492 5.53v30.457c0 3.04-2.463 5.512-5.492 5.512H87.96c-.79 0-1.455.668-1.455 1.46v7.045a2.007 2.007 0 01-2 2.007zM41.543 29.003c-.822 0-1.492.68-1.492 1.516v30.457c0 .826.67 1.498 1.492 1.498h28.252c1.182 0 2.363.402 3.326 1.134l9.385 7.293v-2.953c0-3.019 2.447-5.474 5.455-5.474h3.547c.822 0 1.492-.672 1.492-1.498V30.52c0-.836-.67-1.516-1.492-1.516zm-10.065.748c-1.105 0-2-.899-2-2.007v-3.298c0-2.638 1.434-5.047 3.655-6.136 1.345-.659 2.49-2.253 2.02-4.328-.307-1.345-1.415-2.458-2.759-2.764-1.189-.274-2.347-.018-3.265.718a3.779 3.779 0 00-1.426 2.966c0 1.109-.895 2.007-2 2.007s-2-.898-2-2.007a7.779 7.779 0 012.932-6.105c1.863-1.489 4.279-2.037 6.65-1.494a7.718 7.718 0 015.766 5.786c.818 3.596-.895 7.226-4.162 8.827-.856.42-1.41 1.414-1.41 2.53v3.298a2.003 2.003 0 01-2 2.007zm.002 5.255c-.521 0-1.04-.22-1.42-.582a2.107 2.107 0 01-.58-1.425c0-.542.22-1.044.58-1.425.76-.763 2.1-.743 2.84 0 .36.381.58.883.58 1.425a2.03 2.03 0 01-.58 1.405c-.38.381-.9.602-1.42.602z"/><path d="M83.553 40.19H49.498c-1.105 0-2-.899-2-2.007s.895-2.007 2-2.007h34.055c1.105 0 2 .899 2 2.007s-.895 2.007-2 2.007zM73.49 54.713H49.498c-1.105 0-2-.898-2-2.007s.895-2.007 2-2.007H73.49c1.106 0 2 .9 2 2.007s-.894 2.007-2 2.007z"/></g></svg>